<svg xmlns="http://www.w3.org/2000/svg" width="163" height="32" fill="none" viewBox="0 0 163 32"><path fill="#fff" d="M104.467 30.6682V7.37726H110.76V30.6682H104.467Z"/><path fill="#fff" d="M87.7454 30.6682V7.97728H93.8466V11.9364H94.0829C94.4966 10.528 95.1909 9.4644 96.1659 8.74547C97.1409 8.01668 98.2636 7.65228 99.5341 7.65228C99.8492 7.65228 100.189 7.67198 100.553 7.71137C100.918 7.75077 101.238 7.80494 101.514 7.87387V13.458C101.218 13.3693 100.809 13.2905 100.287 13.2216C99.7655 13.1527 99.2879 13.1182 98.8545 13.1182C97.9288 13.1182 97.1015 13.3201 96.3727 13.7239C95.6538 14.1178 95.0826 14.6693 94.6591 15.3784C94.2454 16.0875 94.0386 16.9049 94.0386 17.8307V30.6682H87.7454Z"/><path fill="#fff" d="M73.9136 31.1114C71.6189 31.1114 69.6345 30.6239 67.9602 29.6489C66.2958 28.664 65.0106 27.2951 64.1045 25.5421C63.1985 23.7792 62.7454 21.7356 62.7454 19.4114C62.7454 17.0674 63.1985 15.0189 64.1045 13.2659C65.0106 11.503 66.2958 10.1341 67.9602 9.15909C69.6345 8.17425 71.6189 7.68182 73.9136 7.68182C76.2083 7.68182 78.1879 8.17425 79.8523 9.15909C81.5265 10.1341 82.8167 11.503 83.7227 13.2659C84.6288 15.0189 85.0818 17.0674 85.0818 19.4114C85.0818 21.7356 84.6288 23.7792 83.7227 25.5421C82.8167 27.2951 81.5265 28.664 79.8523 29.6489C78.1879 30.6239 76.2083 31.1114 73.9136 31.1114ZM73.9432 26.2364C74.9871 26.2364 75.8587 25.9409 76.5579 25.35C77.2572 24.7492 77.7841 23.9318 78.1386 22.8977C78.503 21.8636 78.6852 20.6867 78.6852 19.3671C78.6852 18.0474 78.503 16.8705 78.1386 15.8364C77.7841 14.8023 77.2572 13.9849 76.5579 13.3841C75.8587 12.7833 74.9871 12.483 73.9432 12.483C72.8894 12.483 72.003 12.7833 71.2841 13.3841C70.575 13.9849 70.0382 14.8023 69.6738 15.8364C69.3193 16.8705 69.142 18.0474 69.142 19.3671C69.142 20.6867 69.3193 21.8636 69.6738 22.8977C70.0382 23.9318 70.575 24.7492 71.2841 25.35C72.003 25.9409 72.8894 26.2364 73.9432 26.2364Z"/><path fill="#fff" d="M60.8102 7.97727V13.3682H48.1454V7.97727H60.8102ZM51.2477 5.26818L57.5409 3.06818V23.6954C57.5409 24.2765 57.6295 24.7295 57.8068 25.0545C57.9841 25.3697 58.2303 25.5913 58.5454 25.7193C58.8704 25.8473 59.2447 25.9114 59.6682 25.9114C59.9636 25.9114 60.2591 25.8867 60.5545 25.8375C60.85 25.7784 61.0765 25.7341 61.2341 25.7045L62.2239 30.3875C61.9087 30.486 61.4655 30.5992 60.8943 30.7273C60.3231 30.8651 59.6288 30.9489 58.8114 30.9784C57.2947 31.0375 55.9651 30.8356 54.8227 30.3727C53.6901 29.9098 52.8087 29.1909 52.1784 28.2159C51.5481 27.2409 51.2379 26.0098 51.2477 24.5227V5.26818Z"/><path fill="#fff" d="M33.4795 31.0966C32.0318 31.0966 30.7417 30.8455 29.6091 30.3432C28.4765 29.8311 27.5803 29.0777 26.9204 28.083C26.2704 27.0784 25.9454 25.8277 25.9454 24.3307C25.9454 23.0701 26.1769 22.0114 26.6398 21.1546C27.1026 20.2977 27.7329 19.6083 28.5307 19.0864C29.3284 18.5644 30.2345 18.1705 31.2489 17.9046C32.2731 17.6386 33.3466 17.4515 34.4693 17.3432C35.789 17.2053 36.8526 17.0773 37.6602 16.9591C38.4678 16.8311 39.0538 16.6439 39.4182 16.3977C39.7826 16.1515 39.9648 15.7871 39.9648 15.3046V15.2159C39.9648 14.2803 39.6693 13.5564 39.0784 13.0443C38.4973 12.5322 37.6701 12.2761 36.5966 12.2761C35.464 12.2761 34.5629 12.5273 33.8932 13.0296C33.2235 13.522 32.7803 14.1424 32.5636 14.8909L26.7432 14.4182C27.0386 13.0394 27.6197 11.8477 28.4864 10.8432C29.353 9.82879 30.4708 9.05076 31.8398 8.50909C33.2186 7.95758 34.814 7.68182 36.6261 7.68182C37.8867 7.68182 39.0932 7.82955 40.2454 8.125C41.4076 8.42046 42.4367 8.87841 43.3329 9.49887C44.239 10.1193 44.953 10.9171 45.475 11.8921C45.997 12.8572 46.2579 14.0144 46.2579 15.3636V30.6682H40.2898V27.5216H40.1125C39.7481 28.2307 39.2606 28.8561 38.65 29.3977C38.0394 29.9296 37.3057 30.3481 36.4489 30.6534C35.592 30.9489 34.6023 31.0966 33.4795 31.0966ZM35.2818 26.7534C36.2076 26.7534 37.025 26.5712 37.7341 26.2068C38.4432 25.8326 38.9996 25.3303 39.4034 24.7C39.8072 24.0697 40.0091 23.3557 40.0091 22.558V20.15C39.8121 20.278 39.5413 20.3962 39.1966 20.5046C38.8617 20.603 38.4826 20.6966 38.0591 20.7852C37.6356 20.864 37.2121 20.9379 36.7886 21.0068C36.3651 21.0659 35.981 21.1201 35.6364 21.1693C34.8977 21.2777 34.2526 21.45 33.7011 21.6864C33.1496 21.9227 32.7212 22.2428 32.4159 22.6466C32.1106 23.0405 31.9579 23.533 31.9579 24.1239C31.9579 24.9807 32.2682 25.6356 32.8886 26.0886C33.5189 26.5318 34.3167 26.7534 35.2818 26.7534Z"/><path fill="#fff" d="M17.3875 9.11477C17.2693 7.92311 16.7621 6.99735 15.8659 6.3375C14.9697 5.67765 13.7534 5.34773 12.217 5.34773C11.1731 5.34773 10.2917 5.49545 9.57273 5.79091C8.85379 6.07652 8.30227 6.47538 7.91818 6.9875C7.54394 7.49962 7.35682 8.08068 7.35682 8.73068C7.33712 9.27235 7.45038 9.74508 7.69659 10.1489C7.95265 10.5527 8.30227 10.9023 8.74545 11.1977C9.18864 11.4833 9.70076 11.7345 10.2818 11.9511C10.8629 12.158 11.4833 12.3352 12.1432 12.483L14.8614 13.133C16.1811 13.4284 17.3924 13.8223 18.4955 14.3148C19.5985 14.8072 20.5538 15.4129 21.3614 16.1318C22.1689 16.8508 22.7943 17.6977 23.2375 18.6727C23.6905 19.6477 23.922 20.7655 23.9318 22.0261C23.922 23.8777 23.4492 25.483 22.5136 26.842C21.5879 28.1913 20.2485 29.2402 18.4955 29.9886C16.7523 30.7273 14.6496 31.0966 12.1875 31.0966C9.74508 31.0966 7.6178 30.7223 5.80568 29.9739C4.00341 29.2254 2.59508 28.1174 1.58068 26.65C0.576137 25.1727 0.0492425 23.3458 0 21.1693H6.18977C6.25871 22.1837 6.54924 23.0307 7.06136 23.7102C7.58333 24.3799 8.27765 24.8871 9.14432 25.2318C10.0208 25.5667 11.0106 25.7341 12.1136 25.7341C13.197 25.7341 14.1375 25.5765 14.9352 25.2614C15.7428 24.9462 16.3682 24.508 16.8114 23.9466C17.2545 23.3852 17.4761 22.7402 17.4761 22.0114C17.4761 21.3318 17.2742 20.7606 16.8705 20.2977C16.4765 19.8348 15.8955 19.4409 15.1273 19.1159C14.3689 18.7909 13.4383 18.4955 12.3352 18.2295L9.04091 17.4023C6.49015 16.7818 4.47614 15.8117 2.99886 14.492C1.52159 13.1723 0.787879 11.3947 0.797727 9.15909C0.787879 7.32727 1.27538 5.72689 2.26023 4.35796C3.25492 2.98902 4.61894 1.92046 6.35227 1.15227C8.08561 0.384091 10.0553 0 12.2614 0C14.5068 0 16.4667 0.384091 18.1409 1.15227C19.825 1.92046 21.1348 2.98902 22.0705 4.35796C23.0061 5.72689 23.4886 7.3125 23.5182 9.11477H17.3875Z"/><path fill="#fff" d="M104.545 4.86821L110.745 0.668213V4.86821H104.545Z"/><rect width="44" height="15.12" x="118.76" y="15.991" fill="#fff" rx="7.56"/><path fill="#050620" d="M125.596 27.5514V19.0801H128.838C129.451 19.0801 129.959 19.1766 130.365 19.3697C130.773 19.5599 131.078 19.8205 131.279 20.1514C131.483 20.4823 131.585 20.8574 131.585 21.2765C131.585 21.6212 131.519 21.9163 131.386 22.1617C131.254 22.4044 131.076 22.6015 130.853 22.7532C130.629 22.9049 130.38 23.0138 130.104 23.08V23.1627C130.405 23.1793 130.693 23.2716 130.969 23.4398C131.247 23.6053 131.475 23.8397 131.651 24.143C131.828 24.4464 131.916 24.8131 131.916 25.2433C131.916 25.6818 131.81 26.0761 131.597 26.4263C131.385 26.7738 131.065 27.0481 130.638 27.2494C130.21 27.4507 129.673 27.5514 129.025 27.5514H125.596ZM127.13 26.2691H128.781C129.338 26.2691 129.739 26.163 129.984 25.9506C130.232 25.7355 130.356 25.4598 130.356 25.1233C130.356 24.8724 130.294 24.6463 130.17 24.445C130.046 24.2409 129.87 24.081 129.641 23.9652C129.412 23.8466 129.139 23.7873 128.822 23.7873H127.13V26.2691ZM127.13 22.6829H128.648C128.913 22.6829 129.151 22.6346 129.364 22.5381C129.576 22.4388 129.743 22.2996 129.864 22.1203C129.988 21.9383 130.05 21.7233 130.05 21.4751C130.05 21.1469 129.935 20.8767 129.703 20.6643C129.474 20.452 129.133 20.3458 128.681 20.3458H127.13V22.6829ZM133.717 27.5514V19.0801H139.226V20.3665H135.251V22.6663H138.941V23.9528H135.251V26.265H139.26V27.5514H133.717ZM140.886 20.3665V19.0801H147.645V20.3665H145.026V27.5514H143.504V20.3665H140.886ZM149.478 27.5514H147.84L150.822 19.0801H152.716L155.703 27.5514H154.065L151.802 20.8174H151.736L149.478 27.5514ZM149.531 24.2299H153.999V25.4625H149.531V24.2299Z"/></svg>